<svg id="visual" viewBox="0 0 900 600" width="900" height="600" xmlns="http://www.w3.org/2000/svg" xmlns:xlink="http://www.w3.org/1999/xlink" version="1.1"><rect x="0" y="0" width="900" height="600" fill="#001220"></rect><defs><linearGradient id="grad1_0" x1="33.3%" y1="100%" x2="100%" y2="0%"><stop offset="20%" stop-color="#1e0e9c" stop-opacity="1"></stop><stop offset="80%" stop-color="#1e0e9c" stop-opacity="1"></stop></linearGradient></defs><defs><linearGradient id="grad1_1" x1="33.3%" y1="100%" x2="100%" y2="0%"><stop offset="20%" stop-color="#1e0e9c" stop-opacity="1"></stop><stop offset="80%" stop-color="#001d8d" stop-opacity="1"></stop></linearGradient></defs><defs><linearGradient id="grad1_2" x1="33.3%" y1="100%" x2="100%" y2="0%"><stop offset="20%" stop-color="#00217a" stop-opacity="1"></stop><stop offset="80%" stop-color="#001d8d" stop-opacity="1"></stop></linearGradient></defs><defs><linearGradient id="grad1_3" x1="33.3%" y1="100%" x2="100%" y2="0%"><stop offset="20%" stop-color="#00217a" stop-opacity="1"></stop><stop offset="80%" stop-color="#002064" stop-opacity="1"></stop></linearGradient></defs><defs><linearGradient id="grad1_4" x1="33.3%" y1="100%" x2="100%" y2="0%"><stop offset="20%" stop-color="#001d4d" stop-opacity="1"></stop><stop offset="80%" stop-color="#002064" stop-opacity="1"></stop></linearGradient></defs><defs><linearGradient id="grad1_5" x1="33.3%" y1="100%" x2="100%" y2="0%"><stop offset="20%" stop-color="#001d4d" stop-opacity="1"></stop><stop offset="80%" stop-color="#001836" stop-opacity="1"></stop></linearGradient></defs><defs><linearGradient id="grad1_6" x1="33.3%" y1="100%" x2="100%" y2="0%"><stop offset="20%" stop-color="#001220" stop-opacity="1"></stop><stop offset="80%" stop-color="#001836" stop-opacity="1"></stop></linearGradient></defs><defs><linearGradient id="grad2_0" x1="0%" y1="100%" x2="66.7%" y2="0%"><stop offset="20%" stop-color="#1e0e9c" stop-opacity="1"></stop><stop offset="80%" stop-color="#1e0e9c" stop-opacity="1"></stop></linearGradient></defs><defs><linearGradient id="grad2_1" x1="0%" y1="100%" x2="66.7%" y2="0%"><stop offset="20%" stop-color="#001d8d" stop-opacity="1"></stop><stop offset="80%" stop-color="#1e0e9c" stop-opacity="1"></stop></linearGradient></defs><defs><linearGradient id="grad2_2" x1="0%" y1="100%" x2="66.7%" y2="0%"><stop offset="20%" stop-color="#001d8d" stop-opacity="1"></stop><stop offset="80%" stop-color="#00217a" stop-opacity="1"></stop></linearGradient></defs><defs><linearGradient id="grad2_3" x1="0%" y1="100%" x2="66.7%" y2="0%"><stop offset="20%" stop-color="#002064" stop-opacity="1"></stop><stop offset="80%" stop-color="#00217a" stop-opacity="1"></stop></linearGradient></defs><defs><linearGradient id="grad2_4" x1="0%" y1="100%" x2="66.7%" y2="0%"><stop offset="20%" stop-color="#002064" stop-opacity="1"></stop><stop offset="80%" stop-color="#001d4d" stop-opacity="1"></stop></linearGradient></defs><defs><linearGradient id="grad2_5" x1="0%" y1="100%" x2="66.7%" y2="0%"><stop offset="20%" stop-color="#001836" stop-opacity="1"></stop><stop offset="80%" stop-color="#001d4d" stop-opacity="1"></stop></linearGradient></defs><defs><linearGradient id="grad2_6" x1="0%" y1="100%" x2="66.7%" y2="0%"><stop offset="20%" stop-color="#001836" stop-opacity="1"></stop><stop offset="80%" stop-color="#001220" stop-opacity="1"></stop></linearGradient></defs><g transform="translate(900, 600)"><path d="M-351.5 0C-348.9 -48.1 -346.3 -96.3 -324.8 -134.5C-303.3 -172.8 -262.8 -201.1 -227 -227C-191.1 -252.8 -159.9 -276.2 -122.8 -296.6C-85.8 -316.9 -42.9 -334.2 0 -351.5L0 0Z" fill="#00152b"></path><path d="M-301.3 0C-299.1 -41.3 -296.8 -82.5 -278.4 -115.3C-259.9 -148.1 -225.3 -172.4 -194.6 -194.6C-163.8 -216.7 -137.1 -236.8 -105.3 -254.2C-73.5 -271.6 -36.8 -286.5 0 -301.3L0 0Z" fill="#001b42"></path><path d="M-251.1 0C-249.2 -34.4 -247.4 -68.8 -232 -96.1C-216.6 -123.4 -187.7 -143.7 -162.1 -162.1C-136.5 -180.6 -114.2 -197.3 -87.7 -211.8C-61.3 -226.4 -30.6 -238.7 0 -251.1L0 0Z" fill="#001f59"></path><path d="M-200.9 0C-199.4 -27.5 -197.9 -55 -185.6 -76.9C-173.3 -98.7 -150.2 -114.9 -129.7 -129.7C-109.2 -144.5 -91.4 -157.8 -70.2 -169.5C-49 -181.1 -24.5 -191 0 -200.9L0 0Z" fill="#00216f"></path><path d="M-150.7 0C-149.5 -20.6 -148.4 -41.3 -139.2 -57.7C-130 -74 -112.6 -86.2 -97.3 -97.3C-81.9 -108.4 -68.5 -118.4 -52.6 -127.1C-36.8 -135.8 -18.4 -143.2 0 -150.7L0 0Z" fill="#002084"></path><path d="M-100.4 0C-99.7 -13.8 -98.9 -27.5 -92.8 -38.4C-86.6 -49.4 -75.1 -57.5 -64.9 -64.9C-54.6 -72.2 -45.7 -78.9 -35.1 -84.7C-24.5 -90.5 -12.3 -95.5 0 -100.4L0 0Z" fill="#001895"></path><path d="M-50.2 0C-49.8 -6.9 -49.5 -13.8 -46.4 -19.2C-43.3 -24.7 -37.5 -28.7 -32.4 -32.4C-27.3 -36.1 -22.8 -39.5 -17.5 -42.4C-12.3 -45.3 -6.1 -47.7 0 -50.2L0 0Z" fill="#1e0e9c"></path></g><g transform="translate(0, 0)"><path d="M351.5 0C330.4 40.6 309.3 81.1 291.9 120.9C274.6 160.8 260.9 199.9 236.2 236.2C211.5 272.5 175.7 306 134.5 324.8C93.3 343.5 46.7 347.5 0 351.5L0 0Z" fill="#00152b"></path><path d="M301.3 0C283.2 34.8 265.1 69.5 250.2 103.7C235.3 137.8 223.6 171.3 202.4 202.4C181.3 233.6 150.6 262.3 115.3 278.4C80 294.5 40 297.9 0 301.3L0 0Z" fill="#001b42"></path><path d="M251.1 0C236 29 221 57.9 208.5 86.4C196.1 114.8 186.3 142.8 168.7 168.7C151 194.6 125.5 218.6 96.1 232C66.7 245.4 33.3 248.2 0 251.1L0 0Z" fill="#001f59"></path><path d="M200.9 0C188.8 23.2 176.8 46.3 166.8 69.1C156.9 91.9 149.1 114.2 135 135C120.8 155.7 100.4 174.9 76.9 185.6C53.3 196.3 26.7 198.6 0 200.9L0 0Z" fill="#00216f"></path><path d="M150.7 0C141.6 17.4 132.6 34.8 125.1 51.8C117.7 68.9 111.8 85.7 101.2 101.2C90.6 116.8 75.3 131.2 57.7 139.2C40 147.2 20 148.9 0 150.7L0 0Z" fill="#002084"></path><path d="M100.4 0C94.4 11.6 88.4 23.2 83.4 34.6C78.4 45.9 74.5 57.1 67.5 67.5C60.4 77.9 50.2 87.4 38.4 92.8C26.7 98.2 13.3 99.3 0 100.4L0 0Z" fill="#001895"></path><path d="M50.2 0C47.2 5.8 44.2 11.6 41.7 17.3C39.2 23 37.3 28.6 33.7 33.7C30.2 38.9 25.1 43.7 19.2 46.4C13.3 49.1 6.7 49.6 0 50.2L0 0Z" fill="#1e0e9c"></path></g></svg>